<?xml version="1.0" encoding="UTF-8" standalone="no"?>
<svg width="31px" height="31px" viewBox="0 0 31 31" version="1.1" xmlns="http://www.w3.org/2000/svg" xmlns:xlink="http://www.w3.org/1999/xlink">
    <!-- Generator: Sketch 39 (31667) - http://www.bohemiancoding.com/sketch -->
    <title>calendar</title>
    <desc>Created with Sketch.</desc>
    <defs></defs>
    <g id="Desktop" stroke="none" stroke-width="1" fill="none" fill-rule="evenodd">
        <g id="Delivery" transform="translate(-472.000000, -966.000000)" fill="#A0A0A0">
            <g id="Checkout-(Full)" transform="translate(247.000000, 190.000000)">
                <g id="Date" transform="translate(26.330745, 723.136789)">
                    <g id="calendar" transform="translate(199.604037, 53.520518)">
                        <path d="M2.97284506,2.97336213 C1.33098807,2.97336213 0,4.30040755 0,5.93942362 L0,26.7675598 C0,28.4056704 1.3351146,29.7336213 2.97284506,29.7336213 L26.7554158,29.7336213 C28.3972728,29.7336213 29.7282609,28.4065759 29.7282609,26.7675598 L29.7282609,5.93942362 C29.7282609,4.30131308 28.3931462,2.97336213 26.7554158,2.97336213 L2.97284506,2.97336213 L2.97284506,2.97336213 Z M2.97282609,8.92008639 L2.97282609,26.7602592 L26.7554348,26.7602592 L26.7554348,8.92008639 L2.97282609,8.92008639 L2.97282609,8.92008639 Z M5.94565217,12.6367891 L5.94565217,17.0968323 L10.4048913,17.0968323 L10.4048913,12.6367891 L5.94565217,12.6367891 L5.94565217,12.6367891 Z M12.6345109,12.6367891 L12.6345109,17.0968323 L17.09375,17.0968323 L17.09375,12.6367891 L12.6345109,12.6367891 L12.6345109,12.6367891 Z M19.3233696,12.6367891 L19.3233696,17.0968323 L23.7826087,17.0968323 L23.7826087,12.6367891 L19.3233696,12.6367891 L19.3233696,12.6367891 Z M5.94565217,19.3268539 L5.94565217,23.786897 L10.4048913,23.786897 L10.4048913,19.3268539 L5.94565217,19.3268539 L5.94565217,19.3268539 Z M12.6345109,19.3268539 L12.6345109,23.786897 L17.09375,23.786897 L17.09375,19.3268539 L12.6345109,19.3268539 L12.6345109,19.3268539 Z M19.3233696,19.3268539 L19.3233696,23.786897 L23.7826087,23.786897 L23.7826087,19.3268539 L19.3233696,19.3268539 L19.3233696,19.3268539 Z M5.94565217,0 L5.94565217,2.97336213 L8.91847826,2.97336213 L8.91847826,0 L5.94565217,0 L5.94565217,0 Z M20.8097826,0 L20.8097826,2.97336213 L23.7826087,2.97336213 L23.7826087,0 L20.8097826,0 L20.8097826,0 Z" id="Shape"></path>
                    </g>
                </g>
            </g>
        </g>
    </g>
</svg>