<?xml version="1.0" encoding="UTF-8" standalone="no"?>
<svg width="128px" height="98px" viewBox="0 0 128 98" version="1.1" xmlns="http://www.w3.org/2000/svg" xmlns:xlink="http://www.w3.org/1999/xlink">
    <!-- Generator: Sketch 39 (31667) - http://www.bohemiancoding.com/sketch -->
    <title>check</title>
    <desc>Created with Sketch.</desc>
    <defs></defs>
    <g id="Desktop" stroke="none" stroke-width="1" fill="none" fill-rule="evenodd">
        <g id="Group" transform="translate(-205.000000, 0.000000)" fill="#EC5623">
            <g id="check" transform="translate(205.203422, 0.000000)">
                <path d="M127.152746,19.471556 C127.152746,17.4261289 126.332513,15.3807018 124.856094,13.9079943 L113.700928,2.78087082 C112.224508,1.3081633 110.173926,0.489992461 108.123344,0.489992461 C106.072762,0.489992461 104.02218,1.3081633 102.545761,2.78087082 L48.7384863,56.5346952 L24.6236407,32.3986553 C23.1472216,30.9259478 21.0966395,30.107777 19.0460574,30.107777 C16.9954753,30.107777 14.9448932,30.9259478 13.468474,32.3986553 L2.31330736,43.5257788 C0.836888241,44.9984863 0.0166553975,47.0439134 0.0166553975,49.0893405 C0.0166553975,51.1347676 0.836888241,53.1801947 2.31330736,54.6529022 L32.0057363,84.2706867 L43.160903,95.3978102 C44.6373221,96.8705177 46.6879042,97.6886885 48.7384863,97.6886885 C50.7890684,97.6886885 52.8396505,96.8705177 54.3160697,95.3978102 L65.4712363,84.2706867 L124.856094,25.0351177 C126.332513,23.5624102 127.152746,21.5169831 127.152746,19.471556 L127.152746,19.471556 Z" id="Icons/Check"></path>
            </g>
        </g>
    </g>
</svg>