<?xml version="1.0" encoding="UTF-8"?>
<svg width="65px" height="65px" viewBox="0 0 65 65" version="1.1" xmlns="http://www.w3.org/2000/svg" xmlns:xlink="http://www.w3.org/1999/xlink">
    <!-- Generator: Sketch 40.3 (33839) - http://www.bohemiancoding.com/sketch -->
    <title>Shape Copy</title>
    <desc>Created with Sketch.</desc>
    <defs></defs>
    <g id="Desktop" stroke="none" stroke-width="1" fill="none" fill-rule="evenodd">
        <g id="Navbar-(Our-Meals)" transform="translate(-1217.000000, -127.000000)" fill="#EC5623">
            <path d="M1249.5,192 C1267.39648,192 1282,177.396476 1282,159.5 C1282,141.603524 1267.39648,127 1249.5,127 C1231.60352,127 1217,141.603524 1217,159.5 C1217,177.396476 1231.60352,192 1249.5,192 L1249.5,192 Z M1249.71476,132.726872 C1264.60463,132.726872 1276.70264,144.82489 1276.70264,159.714758 C1276.70264,174.604626 1264.60463,186.702643 1249.71476,186.702643 L1249.71476,186.702643 C1234.82489,186.702643 1222.72687,174.604626 1222.72687,159.714758 C1222.72687,144.82489 1234.82489,132.726872 1249.71476,132.726872 L1249.71476,132.726872 Z M1249.57159,180.689427 C1261.24009,180.689427 1270.68943,171.240088 1270.68943,159.571586 C1270.68943,147.903084 1261.24009,138.453744 1249.57159,138.453744 C1237.90308,138.453744 1228.45374,147.903084 1228.45374,159.571586 C1228.45374,171.240088 1237.90308,180.689427 1249.57159,180.689427 Z M1252.27963,170.827468 C1251.95852,171.148576 1251.50532,171.337595 1251.05222,171.337821 L1247.65394,171.339513 C1247.20083,171.339739 1246.74782,171.151171 1246.42704,170.830382 C1246.10625,170.509594 1245.93655,170.075453 1245.93677,169.62235 L1245.94018,162.788031 L1239.10586,162.791435 C1238.65276,162.79166 1238.21862,162.621962 1237.89783,162.301174 C1237.57704,161.980385 1237.38847,161.527375 1237.3887,161.074271 L1237.39039,157.675991 C1237.39061,157.222887 1237.57963,156.769689 1237.90074,156.44858 C1238.22185,156.127472 1238.65616,155.957342 1239.10926,155.957116 L1245.94358,155.953713 L1245.94698,149.119394 C1245.94721,148.66629 1246.11734,148.231981 1246.43845,147.910873 C1246.75956,147.589764 1247.21276,147.400745 1247.66586,147.40052 L1251.06414,147.398827 C1251.51724,147.398602 1251.97025,147.587169 1252.29104,147.907958 C1252.61183,148.228747 1252.78153,148.662887 1252.7813,149.115991 L1252.7779,155.950309 L1259.61222,155.946906 C1260.06532,155.94668 1260.49946,156.116378 1260.82025,156.437167 C1261.14104,156.757956 1261.32961,157.210966 1261.32938,157.66407 L1261.32769,161.06235 C1261.32746,161.515454 1261.13844,161.968651 1260.81734,162.28976 C1260.49623,162.610868 1260.06192,162.780999 1259.60881,162.781224 L1252.7745,162.784628 L1252.77109,169.618946 C1252.77087,170.07205 1252.60074,170.506359 1252.27963,170.827468 Z" id="Shape-Copy"></path>
        </g>
    </g>
</svg>