<?xml version="1.0" encoding="UTF-8"?>
<svg width="65px" height="69px" viewBox="0 0 65 69" version="1.1" xmlns="http://www.w3.org/2000/svg" xmlns:xlink="http://www.w3.org/1999/xlink">
    <!-- Generator: Sketch 40.3 (33839) - http://www.bohemiancoding.com/sketch -->
    <title>Shape</title>
    <desc>Created with Sketch.</desc>
    <defs></defs>
    <g id="Desktop" stroke="none" stroke-width="1" fill="none" fill-rule="evenodd">
        <g id="Navbar-(About)" transform="translate(-217.000000, -124.000000)" fill="#EC5623">
            <path d="M249.5,124 C240.385144,124 232.673358,130.000951 230.101562,138.269531 C222.589567,140.056492 217,146.816134 217,154.875 C217,163.182476 222.949926,170.084837 230.8125,171.607422 L230.8125,182.5 L268.1875,182.5 L268.1875,171.607422 C276.050074,170.084837 282,163.182476 282,154.875 C282,146.816134 276.410433,140.056492 268.898438,138.269531 C266.326642,130.000951 258.614856,124 249.5,124 L249.5,124 Z M230.8125,185.75 L230.8125,192.25 L268.1875,192.25 L268.1875,185.75 L230.8125,185.75 L230.8125,185.75 Z" id="Shape"></path>
        </g>
    </g>
</svg>