<svg width="65px" height="69px" viewBox="217 124 65 69" version="1.1" xmlns="http://www.w3.org/2000/svg" xmlns:xlink="http://www.w3.org/1999/xlink">
    <path d="M249.5,124 C240.385144,124 232.673358,130.000951 230.101562,138.269531 C222.589567,140.056492 217,146.816134 217,154.875 C217,163.182476 222.949926,170.084837 230.8125,171.607422 L230.8125,182.5 L268.1875,182.5 L268.1875,171.607422 C276.050074,170.084837 282,163.182476 282,154.875 C282,146.816134 276.410433,140.056492 268.898438,138.269531 C266.326642,130.000951 258.614856,124 249.5,124 L249.5,124 Z M230.8125,185.75 L230.8125,192.25 L268.1875,192.25 L268.1875,185.75 L230.8125,185.75 L230.8125,185.75 Z" id="Shape" stroke="none" fill="#A0A0A0" fill-rule="evenodd"></path>
</svg>