<svg width="65px" height="65px" viewBox="1158 124 65 65" version="1.1" xmlns="http://www.w3.org/2000/svg" xmlns:xlink="http://www.w3.org/1999/xlink">
    <path d="M1190.5,189 C1208.39648,189 1223,174.396476 1223,156.5 C1223,138.603524 1208.39648,124 1190.5,124 C1172.60352,124 1158,138.603524 1158,156.5 C1158,174.396476 1172.60352,189 1190.5,189 L1190.5,189 Z M1190.71476,129.726872 C1205.60463,129.726872 1217.70264,141.82489 1217.70264,156.714758 C1217.70264,171.604626 1205.60463,183.702643 1190.71476,183.702643 L1190.71476,183.702643 C1175.82489,183.702643 1163.72687,171.604626 1163.72687,156.714758 C1163.72687,141.82489 1175.82489,129.726872 1190.71476,129.726872 L1190.71476,129.726872 Z M1190.57159,177.689427 C1202.24009,177.689427 1211.68943,168.240088 1211.68943,156.571586 C1211.68943,144.903084 1202.24009,135.453744 1190.57159,135.453744 C1178.90308,135.453744 1169.45374,144.903084 1169.45374,156.571586 C1169.45374,168.240088 1178.90308,177.689427 1190.57159,177.689427 Z M1186.34982,151.693567 L1182,149.592632 C1182,149.513723 1182.05918,149.301659 1182.17754,148.956433 C1182.29591,148.611207 1182.53263,148.147625 1182.88772,147.565673 C1183.24281,146.98372 1183.6916,146.436299 1184.23409,145.923392 C1184.77659,145.410485 1185.54101,144.961698 1186.52737,144.577018 C1187.51373,144.192337 1188.6283,144 1189.87111,144 C1192.15947,144 1194.13216,144.670715 1195.78924,146.012164 C1197.44632,147.353613 1198.27485,149.040263 1198.27485,151.072164 C1198.27485,153.577517 1196.60793,155.540344 1193.27404,156.960702 C1192.82031,157.157974 1192.53427,157.429219 1192.41591,157.774444 C1192.29754,158.11967 1192.23836,158.598048 1192.23836,159.209591 L1192.23836,160.866667 L1187.35591,160.866667 L1187.35591,157.641287 C1187.35591,157.108652 1187.37563,156.689456 1187.41509,156.383684 C1187.45454,156.077913 1187.58277,155.742555 1187.79977,155.377602 C1188.01677,155.012649 1188.3324,154.692087 1188.74667,154.415906 C1189.0623,154.218634 1189.48643,153.986843 1190.01906,153.720526 C1190.5517,153.454209 1190.94624,153.242145 1191.20269,153.084327 C1191.45914,152.92651 1191.69587,152.674992 1191.91287,152.329766 C1192.12986,151.98454 1192.23836,151.565344 1192.23836,151.072164 C1192.23836,150.361985 1192.00657,149.780041 1191.54298,149.326316 C1191.07939,148.87259 1190.51225,148.645731 1189.84152,148.645731 C1188.87489,148.645731 1188.10061,148.95643 1187.51865,149.577836 C1186.9367,150.199243 1186.5471,150.904479 1186.34982,151.693567 Z M1190.37333,163 C1191.32024,163 1192.12411,163.330426 1192.78497,163.991287 C1193.44583,164.652148 1193.77626,165.456019 1193.77626,166.402924 C1193.77626,167.330102 1193.44583,168.12411 1192.78497,168.784971 C1192.12411,169.445832 1191.32024,169.776257 1190.37333,169.776257 C1189.44616,169.776257 1188.65215,169.445832 1187.99129,168.784971 C1187.33043,168.12411 1187,167.330102 1187,166.402924 C1187,165.456019 1187.33043,164.652148 1187.99129,163.991287 C1188.65215,163.330426 1189.44616,163 1190.37333,163 Z" id="faq-icon" stroke="none" fill="#A0A0A0" fill-rule="evenodd"></path>
</svg>