<?xml version="1.0" encoding="UTF-8"?>
<svg width="88px" height="50px" viewBox="0 0 88 50" version="1.1" xmlns="http://www.w3.org/2000/svg" xmlns:xlink="http://www.w3.org/1999/xlink">
    <!-- Generator: Sketch 40.3 (33839) - http://www.bohemiancoding.com/sketch -->
    <title>Food Icon</title>
    <desc>Created with Sketch.</desc>
    <defs></defs>
    <g id="Desktop" stroke="none" stroke-width="1" fill="none" fill-rule="evenodd">
        <g id="Navbar-(Our-Meals)" transform="translate(-146.000000, -136.000000)" fill="#EC5623">
            <g id="Food-Icon" transform="translate(146.000000, 136.000000)">
                <path d="M23.3607876,23.9894732 C22.6940884,23.5362347 21.7832253,23.7058336 21.3285248,24.3739948 L20.1866563,26.048053 C19.7319557,26.7147522 19.9044788,27.6256153 20.5711779,28.0803158 C20.8241142,28.2513768 21.1092158,28.3347142 21.3928554,28.3347142 C21.8607145,28.3347142 22.3198012,28.1110191 22.6034407,27.6957941 L23.7453092,26.021736 C24.2000097,25.3550368 24.0274867,24.4441737 23.3607876,23.9894732" id="Shape"></path>
                <path d="M18.2611238,29.0628198 L16.5344315,27.9969784 C15.8443394,27.568595 14.9451728,27.7879039 14.5226376,28.4736098 C14.0986403,29.1607778 14.312101,30.0599444 14.9978069,30.4839417 L16.7244992,31.5497831 C16.964277,31.6989132 17.2303719,31.76763 17.4906185,31.76763 C17.9804084,31.76763 18.461426,31.5205419 18.7362932,31.0746138 C19.1602905,30.3859837 18.9482918,29.4868171 18.2611238,29.0628198" id="Shape"></path>
                <path d="M27.1811492,28.8420488 L29.2031775,28.9984892 C29.2426532,29.0014133 29.2792046,29.0028754 29.3172182,29.0028754 C30.074565,29.0028754 30.7134851,28.4195136 30.7734295,27.6533944 C30.8362981,26.8477996 30.2339295,26.146011 29.4297968,26.0831425 L27.4077684,25.92524 C26.6050977,25.8462888 25.900385,26.46474 25.8360544,27.2703348 C25.7746479,28.0759296 26.3770164,28.7777182 27.1811492,28.8420488" id="Shape"></path>
                <path d="M34.8788927,29.4765827 L33.7370242,31.1521029 C33.2808616,31.8202641 33.4533847,32.7311272 34.1200838,33.1843657 C34.3730201,33.3554267 34.6595838,33.4387641 34.9432234,33.4387641 C35.4096204,33.4387641 35.8701691,33.216531 36.1523466,32.8013061 L37.2942151,31.1243238 C37.7503777,30.4561626 37.5778547,29.5467615 36.9111555,29.092061 C36.2429943,28.6402846 35.3350553,28.8084215 34.8788927,29.4765827" id="Shape"></path>
                <path d="M32.9182709,25.3740436 L34.6449632,26.439885 C34.884741,26.5890151 35.1508358,26.6577319 35.4110824,26.6577319 C35.9008724,26.6577319 36.3804279,26.4106438 36.6567572,25.9647156 C37.0807544,25.2760856 36.8672937,24.376919 36.1815878,23.9529217 L34.4548955,22.8870803 C33.7633413,22.4601589 32.8656367,22.6765437 32.4431015,23.3622496 C32.0191042,24.0508797 32.2325649,24.9500463 32.9182709,25.3740436" id="Shape"></path>
                <path d="M67.5763926,31.7632438 C68.0442517,31.7632438 68.5033384,31.5395487 68.7869779,31.1243238 L69.9303085,29.4473415 C70.385009,28.7821044 70.212486,27.8712413 69.5457868,27.4165408 C68.8820118,26.9633023 67.9682246,27.1314392 67.5135241,27.8010624 L66.3701935,29.4765827 C65.915493,30.1432818 66.088016,31.0526829 66.7547151,31.5088455 C67.0061894,31.6799064 67.2927531,31.7632438 67.5763926,31.7632438" id="Shape"></path>
                <path d="M61.8538915,26.097763 L63.5805838,27.1636045 C63.8203616,27.3127345 64.0864565,27.3814513 64.3467031,27.3814513 C64.836493,27.3814513 65.3160485,27.1343633 65.5923778,26.6884351 C66.0163751,25.9998051 65.8029144,25.1006384 65.1172084,24.6766412 L63.3905161,23.6107997 C62.700424,23.1824163 61.7997953,23.4002632 61.3787222,24.0874312 C60.9547249,24.7745992 61.1681856,25.6737658 61.8538915,26.097763" id="Shape"></path>
                <path d="M41.1482041,25.4135192 L43.1716945,25.5699595 C43.2097081,25.5728837 43.2491837,25.5743457 43.2857352,25.5743457 C44.043082,25.5743457 44.682002,24.992446 44.7419465,24.2248648 C44.804815,23.4192699 44.2024465,22.7174814 43.3968517,22.6546128 L41.3733613,22.4981724 C40.5516838,22.43969 39.8659779,23.0376724 39.8031093,23.8418052 C39.7402408,24.6474 40.3426093,25.3506506 41.1482041,25.4135192" id="Shape"></path>
                <path d="M42.6044154,28.7660217 C41.8295239,28.5540231 41.023929,29.017496 40.8148545,29.7996978 C40.6043179,30.5789756 41.0663288,31.3816463 41.8485306,31.5892587 L43.8062284,32.1156002 C43.9334276,32.1492275 44.0606267,32.1653102 44.1863639,32.1653102 C44.8325942,32.1653102 45.4218042,31.7354647 45.5972513,31.0819241 C45.8077879,30.3011843 45.344315,29.4999756 44.5635752,29.2909011 L42.6044154,28.7660217" id="Shape"></path>
                <path d="M50.3650275,30.2982601 C50.5624056,30.9196355 51.136995,31.3173157 51.7583703,31.3173157 C51.9045762,31.3173157 52.0537063,31.2953848 52.2013743,31.2485989 L54.1356791,30.6345338 C54.9047225,30.3903699 55.3301818,29.5672304 55.0860178,28.798187 C54.843316,28.0306058 54.0274867,27.6007603 53.249671,27.8478483 L51.3153662,28.4619133 C50.5463229,28.7060773 50.1208636,29.5277548 50.3650275,30.2982601" id="Shape"></path>
                <path d="M48.5710805,27.7791315 C48.9439056,27.7791315 49.3167308,27.6373118 49.6018324,27.3536722 L51.0419611,25.9223159 C51.6136264,25.3550368 51.6165505,24.428091 51.0478093,23.8549637 C50.4776061,23.2832984 49.5521224,23.2789122 48.9804571,23.8491155 L47.5403285,25.2804718 C46.9686632,25.8492129 46.9657391,26.7746966 47.5344802,27.347824 C47.8210439,27.6343876 48.1967932,27.7791315 48.5710805,27.7791315" id="Shape"></path>
                <path d="M58.8537453,30.1140406 C59.0277304,30.7705054 59.6198645,31.203275 60.2660948,31.203275 C60.3903699,31.203275 60.516107,31.1871924 60.6418441,31.155027 C61.4211219,30.9488767 61.8875189,30.147668 61.6813685,29.3669282 L61.1637994,27.4048443 C60.957649,26.6226424 60.1535163,26.1577075 59.3757006,26.3653199 C58.5964228,26.5714703 58.1300258,27.372679 58.3361762,28.1534188 L58.8537453,30.1140406" id="Shape"></path>
                <path d="M53.9923973,23.2277401 L56.0158877,23.3856426 C56.0553633,23.3885667 56.0933769,23.3900288 56.1313904,23.3900288 C56.8872752,23.3900288 57.5276573,22.8081291 57.5876017,22.0420098 C57.6504703,21.236415 57.0495638,20.5331644 56.243969,20.4702958 L54.2204786,20.3109313 C53.4265802,20.2495248 52.7116331,20.8489692 52.6487646,21.6545641 C52.585896,22.4601589 53.1882645,23.1648716 53.9923973,23.2277401" id="Shape"></path>
                <path d="M35.5909157,11.0400117 C35.9476583,12.2871485 37.1056094,13.158536 38.4053804,13.158536 C38.6773235,13.158536 38.9463424,13.1219845 39.2080511,13.0459574 L43.4246308,11.8382962 C44.1732053,11.6219114 44.7945806,11.1277353 45.1747161,10.4434914 C45.5548516,9.76070959 45.6454993,8.97119743 45.4305765,8.22116088 L44.2229153,4.00458112 C43.7916078,2.49719772 42.1204737,1.55709343 40.60578,1.99863541 L36.3892003,3.2062966 C35.6406258,3.42268142 35.0192505,3.91685755 34.639115,4.59963936 C34.2589795,5.28388323 34.1683318,6.07339539 34.3832545,6.82343194 L35.5909157,11.0400117" id="Shape"></path>
                <path d="M23.6122618,17.5447147 C26.8375652,17.5447147 29.4605,14.9217798 29.4605,11.6964764 C29.4605,8.47117306 26.8375652,5.84823822 23.6122618,5.84823822 C20.3869584,5.84823822 17.7640236,8.47117306 17.7640236,11.6964764 C17.7640236,14.9217798 20.3869584,17.5447147 23.6122618,17.5447147" id="Shape"></path>
                <path d="M51.8036941,12.9509235 C52.1896779,14.0094547 53.2058092,14.7200156 54.3330572,14.7200156 C54.6474,14.7200156 54.9602807,14.6644573 55.2570788,14.5562649 L57.0641844,13.895414 C58.4589892,13.3866173 59.1783225,11.8382962 58.6709879,10.4420293 L55.4968566,1.76616794 C55.0012184,0.412300794 53.395877,-0.333349578 52.0420098,0.16375067 L50.2363663,0.824601589 C49.5608948,1.07168965 49.0213948,1.56732784 48.7187485,2.2194064 C48.4146401,2.87294702 48.3839368,3.6039768 48.6310249,4.27944832 L51.8036941,12.9509235" id="Shape"></path>
                <path d="M87.6285394,35.156684 C87.1431356,34.2121936 86.1811004,33.6273698 85.1196452,33.6273698 L81.6662605,33.6273698 C81.2992836,32.8831814 80.7670939,32.2354891 80.0711536,31.7647059 C79.5945222,31.4401287 79.3386617,30.957649 79.3883718,30.4722452 C79.4483162,29.8757249 79.4103026,29.36108 79.2670208,28.8932209 C78.7772309,27.2908036 77.4102052,26.0100395 75.784395,25.629904 C75.5943272,25.5875043 75.3867148,25.5582631 75.1674058,25.5407184 C74.5884302,23.9456114 73.0664262,22.7993567 71.2783274,22.781812 C71.0151567,21.1750085 69.9507773,19.8328379 68.5018763,19.1705249 C68.493104,18.9307471 68.4667869,18.6909693 68.3995321,18.4555778 L67.1918709,14.238998 C66.7605634,12.7316146 65.0879672,11.8002827 63.5747356,12.2330523 L59.3581559,13.4407135 C58.6081193,13.6570983 57.9882061,14.1512744 57.6080706,14.8340562 C57.3010381,15.3867148 57.1928457,16.0051659 57.2717969,16.6177689 C55.7307861,16.5402797 54.2204786,16.4876456 52.7437984,16.4642526 C52.2350017,13.7550563 49.860617,11.6964764 47.0052147,11.6964764 C44.0372338,11.6964764 41.6058287,13.9261173 41.2330036,16.7946781 C39.9259223,16.8882499 38.6319996,16.9935182 37.364394,17.1221794 L37.3790146,17.1060968 C37.8614942,16.5724451 38.1056582,15.8808909 38.0691067,15.1615576 C38.0310931,14.4451484 37.7182124,13.7857595 37.1830986,13.3018178 L35.7517423,12.0122813 C34.6917491,11.0575564 32.9051123,11.1525903 31.9489254,12.2096593 L25.9793362,18.8357132 C24.6839515,19.0974219 23.4280423,19.3766753 22.2086846,19.6690872 C22.2189191,19.3488961 22.1852917,19.0243189 22.0873337,18.7085141 C21.8548662,17.9614016 21.3446074,17.3502607 20.6545153,16.989132 L16.768361,14.9524831 C15.3823286,14.2243774 13.5445197,14.8062771 12.8222623,16.1864613 L10.7856133,20.0711536 C10.4259467,20.7627077 10.3543058,21.553682 10.5882353,22.3007944 C10.778303,22.9119353 11.1628247,23.4236561 11.6716214,23.7906331 C11.6628491,23.9646182 11.6701594,24.1415274 11.6964764,24.3184366 C11.7739656,24.8360057 11.5049466,25.2892441 11.2651689,25.5772698 C10.7943857,26.1416248 10.1978654,26.3843267 10.0297285,26.390175 C9.41858765,26.4091817 8.86446708,26.6723525 8.42438715,27.1489839 C7.64510941,27.9940543 7.40971782,29.337687 7.34392514,30.220771 C6.33364199,30.8114431 4.69613529,31.9050636 4.62010819,33.6273698 L2.99137385,33.6273698 C1.92991861,33.6273698 0.969345485,34.2121936 0.483941713,35.156684 C-0.00146205956,36.0997125 0.0804132755,37.2225742 0.697402408,38.0866514 L0.872849554,38.3337395 L8.53404162,42.9406891 C8.88054973,43.5430577 9.11740338,44.3910522 9.34548467,45.2171158 C9.87182611,47.111945 10.5955456,49.7100249 13.3778449,49.7100249 L74.7843462,49.7100249 C77.5666455,49.7100249 78.290365,47.111945 78.8167065,45.2171158 C79.0462498,44.3910522 79.2816414,43.5415956 79.6281495,42.9392271 L87.2396316,38.3322774 L87.4150787,38.0866514 C88.0320678,37.2225742 88.1139432,36.0997125 87.6285394,35.156684 L87.6285394,35.156684 L87.6285394,35.156684 Z M9.06184512,32.6053901 C9.5794142,32.30713 10.2885131,31.9006774 10.2431892,30.9605731 C10.2154101,30.368439 10.3484575,29.6271748 10.4975876,29.2762805 C11.5517325,29.1139919 12.6994493,28.4238998 13.5138165,27.445782 C14.0503923,26.8010137 14.4012866,26.0772942 14.5562649,25.3477265 L15.9028218,26.0539013 C15.9145183,26.0597495 15.9276768,26.0626736 15.9393733,26.0685219 C16.1148204,26.1562454 16.2961158,26.2249622 16.4832594,26.2746723 C16.6163068,26.3112237 16.7508163,26.3258443 16.8882499,26.3433891 C16.9408841,26.3492373 16.9935182,26.3594717 17.0461523,26.3623958 C17.1177933,26.3682441 17.1865101,26.3887129 17.2566889,26.3887129 C17.3531849,26.3887129 17.4423705,26.3594717 17.5359423,26.3506994 C17.5681076,26.3463132 17.5973488,26.341927 17.628052,26.3375408 C18.1441591,26.2717481 18.6193284,26.0758322 19.0228569,25.7673376 C19.0886495,25.7176276 19.1529802,25.6664555 19.2143867,25.6123593 C19.2991861,25.5363322 19.3825235,25.4617671 19.4570886,25.3755056 C19.6076807,25.2073688 19.7451143,25.0260734 19.8533067,24.8213851 L20.7875627,23.0362103 C22.2218432,22.6531507 23.7336127,22.292022 25.3024027,21.9557483 C25.3053268,21.9615966 25.3097129,21.9674448 25.3126371,21.973293 C25.3725815,22.1078025 25.4486086,22.2320776 25.5290219,22.3548906 C25.5509528,22.3870559 25.5670354,22.4221453 25.5904284,22.4557727 C25.7000829,22.6049028 25.8243579,22.7467225 25.9647156,22.8739217 L27.3946099,24.1619962 C27.8902481,24.6093864 28.5291681,24.8550124 29.1958672,24.8550124 C29.9590623,24.8550124 30.6886301,24.5304352 31.1974268,23.9646182 L34.4139578,20.3971928 C36.7123154,20.0974706 39.1159413,19.8591549 41.5751255,19.6837078 C41.6672352,19.9176373 41.7856621,20.1340221 41.905551,20.3504069 C41.9377163,20.4074273 41.9654954,20.4644476 41.9976607,20.5200058 C42.1204737,20.7246942 42.2535211,20.9191481 42.3997271,21.1062917 C42.4494371,21.1720844 42.5035333,21.2334909 42.5561675,21.2963595 C42.7082216,21.4761928 42.8617379,21.6516399 43.0342609,21.8124665 C43.0561918,21.8343974 43.0825089,21.85048 43.1059018,21.8709489 C43.4217067,22.1560505 43.7682148,22.4002144 44.14104,22.6122131 C44.2770116,22.6911643 44.411521,22.7701155 44.5533408,22.8373702 C44.6980847,22.904625 44.8457527,22.9587212 44.9963449,23.0157415 C45.1878747,23.0873824 45.3852527,23.1473269 45.5855549,23.198499 C45.7098299,23.2306643 45.8326429,23.2642916 45.9598421,23.2876846 C46.300502,23.3505531 46.6484721,23.3929529 47.0052147,23.3929529 C47.3663434,23.3929529 47.7172377,23.3505531 48.0608217,23.2862225 C48.2026415,23.2599055 48.338613,23.2189678 48.4775087,23.1824163 C48.6617282,23.1327063 48.8444856,23.0800721 49.0228569,23.0128174 C49.198304,22.9470247 49.3664409,22.8753838 49.5331156,22.7949705 C49.6471563,22.7394123 49.7553487,22.6780058 49.8635411,22.6151372 C50.8328866,22.0668649 51.6223988,21.2568839 52.1472781,20.2714557 C52.1633608,20.2407525 52.1809055,20.2115113 52.1969882,20.180808 C52.3212632,19.9366441 52.4265315,19.6851698 52.5157171,19.4234612 C52.5215654,19.4059165 52.5317998,19.3898338 52.537648,19.3722891 C54.330133,19.3986062 56.1825625,19.4658609 58.0730055,19.5755154 L58.5598713,21.2744286 C58.6358984,21.5390614 58.7616356,21.7773771 58.9063795,22.0010722 C58.9531654,22.0770993 58.9984892,22.1487402 59.0525854,22.2189191 C59.1885569,22.3929041 59.3391491,22.5537307 59.508748,22.6926263 C59.6198645,22.7847361 59.7397534,22.8578391 59.8625664,22.9324041 C59.9546762,22.9879624 60.04971,23.0376724 60.146206,23.0829962 C60.3172669,23.1648716 60.48979,23.2306643 60.6754715,23.2774502 C60.8538428,23.3242361 61.0336761,23.3549393 61.2178956,23.3666358 C61.2719918,23.3695599 61.3202398,23.3929529 61.374336,23.3929529 C61.4152736,23.3929529 61.4547493,23.3768702 61.4956869,23.3754082 C61.7106097,23.3695599 61.9255324,23.3432428 62.1389931,23.2847605 C62.1506896,23.2818363 62.1638481,23.2832984 62.1770067,23.2803743 L66.3935864,22.071251 C66.6450607,21.9996101 66.8760661,21.8855695 67.093913,21.7525221 C67.0982991,21.75106 67.1012233,21.75106 67.1056094,21.7481359 C67.8702666,22.0069204 68.4170769,22.7262537 68.4170769,23.5640138 C68.4170769,24.9544325 69.8718261,25.7059311 71.2373897,25.7059311 C71.9289439,25.7059311 72.4918368,26.268824 72.4918368,26.9589161 C72.4918368,27.1095083 72.5386227,28.4224377 74.1790536,28.428286 C74.361811,28.429748 74.9203178,28.4312101 75.122082,28.477996 C75.7405332,28.6227399 76.2829573,29.1344607 76.4701009,29.7456016 C76.4774112,29.7660705 76.5095765,29.8888835 76.4788732,30.1754471 C76.3487499,31.4459769 76.8283055,32.7048102 77.7537892,33.6273698 L58.3200936,33.6273698 L57.4633267,33.560115 C57.2864175,33.5484185 57.1168186,33.5791218 56.9530679,33.6273698 L25.507091,33.6273698 C25.6679175,33.4256055 25.7921926,33.1931381 25.827282,32.9168088 L26.0758322,30.9035528 C26.1767143,30.1038062 25.606511,29.3727765 24.8053024,29.2733564 C24.0040938,29.1695502 23.274526,29.7441396 23.175106,30.5438862 L22.9250938,32.5571422 C22.8753838,32.9548224 22.9923486,33.3334958 23.2189678,33.6273698 L7.62464058,33.6273698 C7.79423949,33.4256055 8.18899557,33.1039524 9.06184512,32.6053901 L9.06184512,32.6053901 L9.06184512,32.6053901 Z M20.7919489,43.8617866 L14.8399045,43.8617866 C14.0313855,43.8617866 13.3778449,43.208246 13.3778449,42.3997271 C13.3778449,41.5912081 14.0313855,40.9376675 14.8399045,40.9376675 L20.7919489,40.9376675 C21.6004679,40.9376675 22.2540085,41.5912081 22.2540085,42.3997271 C22.2540085,43.208246 21.6004679,43.8617866 20.7919489,43.8617866 L20.7919489,43.8617866 L20.7919489,43.8617866 Z M73.3222867,43.8617866 L27.9765096,43.8617866 C27.1694527,43.8617866 26.51445,43.208246 26.51445,42.3997271 C26.51445,41.5912081 27.1694527,40.9376675 27.9765096,40.9376675 L73.3222867,40.9376675 C74.1308056,40.9376675 74.7843462,41.5912081 74.7843462,42.3997271 C74.7843462,43.208246 74.1308056,43.8617866 73.3222867,43.8617866 L73.3222867,43.8617866 L73.3222867,43.8617866 Z" id="Shape"></path>
            </g>
        </g>
    </g>
</svg>