<?xml version="1.0" encoding="UTF-8"?>
<svg width="60px" height="53px" viewBox="0 0 60 53" version="1.1" xmlns="http://www.w3.org/2000/svg" xmlns:xlink="http://www.w3.org/1999/xlink">
    <!-- Generator: Sketch 40.3 (33839) - http://www.bohemiancoding.com/sketch -->
    <title>Shape</title>
    <desc>Created with Sketch.</desc>
    <defs></defs>
    <g id="Desktop" stroke="none" stroke-width="1" fill="none" fill-rule="evenodd">
        <g id="Navbar-(Our-Meals)" transform="translate(-514.000000, -133.000000)" fill="#EC5623">
            <path d="M572.023926,185.767165 L544.000139,185.767165 L515.976352,185.767165 C514.457441,185.767165 513.507787,184.114114 514.267243,182.791406 L520.894797,171.250747 L567.105482,171.250747 L573.733035,182.791406 C574.491824,184.114114 573.542837,185.767165 572.023926,185.767165 L572.023926,185.767165 Z M532.388073,151.48354 L555.612205,151.48354 L564.115708,165.988612 L523.88457,165.988612 L532.388073,151.48354 L532.388073,151.48354 Z M553.604786,154.774293 L534.395492,154.774293 L529.757339,162.685847 L558.242939,162.685847 L553.604786,154.774293 L553.604786,154.774293 Z M542.29103,133.992031 C543.050486,132.669323 544.949125,132.669323 545.708581,133.992031 L552.829314,146.193376 L535.351152,146.193376 L542.29103,133.992031 L542.29103,133.992031 Z M544.000139,137.607121 L540.780794,142.894615 L547.017274,142.894615 L544.000139,137.607121 L544.000139,137.607121 Z" id="Shape"></path>
        </g>
    </g>
</svg>