<?xml version="1.0" encoding="UTF-8"?>
<svg width="65px" height="65px" viewBox="0 0 65 65" version="1.1" xmlns="http://www.w3.org/2000/svg" xmlns:xlink="http://www.w3.org/1999/xlink">
    <!-- Generator: Sketch 40.3 (33839) - http://www.bohemiancoding.com/sketch -->
    <title>Shape</title>
    <desc>Created with Sketch.</desc>
    <defs></defs>
    <g id="Desktop" stroke="none" stroke-width="1" fill="none" fill-rule="evenodd">
        <g id="Navbar-(Our-Meals)" transform="translate(-864.000000, -127.000000)" fill="#EC5623">
            <path d="M896.5,192 C914.396476,192 929,177.396476 929,159.5 C929,141.603524 914.396476,127 896.5,127 C878.603524,127 864,141.603524 864,159.5 C864,177.396476 878.603524,192 896.5,192 L896.5,192 Z M896.5,132.512115 C911.389868,132.512115 923.487885,144.610132 923.487885,159.5 C923.487885,174.389868 911.389868,186.487885 896.5,186.487885 L896.5,186.487885 C881.610132,186.487885 869.512115,174.389868 869.512115,159.5 C869.512115,144.610132 881.610132,132.512115 896.5,132.512115 L896.5,132.512115 Z M896.5,180.617841 C908.168502,180.617841 917.617841,171.168502 917.617841,159.5 C917.617841,147.831498 908.168502,138.382159 896.5,138.382159 C884.831498,138.382159 875.382159,147.831498 875.382159,159.5 C875.382159,171.168502 884.831498,180.617841 896.5,180.617841 L896.5,180.617841 Z M889.126652,167.875551 C889.34141,167.159692 889.484581,166.515419 889.699339,165.799559 C889.914097,165.012115 890.128855,164.868943 890.9163,165.298458 C892.13326,165.942731 893.493392,166.300661 894.92511,166.515419 C895.855727,166.65859 896.714758,166.515419 897.502203,166.157489 C899.077093,165.513216 899.29185,163.651982 898.003304,162.578194 C897.573789,162.220264 897.072687,161.933921 896.5,161.719163 C895.139868,161.146476 893.70815,160.645374 892.419604,159.85793 C890.343612,158.640969 888.98348,156.922907 889.198238,154.345815 C889.34141,151.482379 890.987885,149.692731 893.636564,148.762115 C894.710352,148.332599 894.710352,148.404185 894.710352,147.258811 L894.710352,146.113436 C894.710352,145.254405 894.853524,145.111233 895.712555,145.111233 L896.5,145.111233 C898.289648,145.111233 898.289648,145.111233 898.289648,146.900881 C898.289648,148.189427 898.289648,148.189427 899.578194,148.404185 C900.580396,148.547357 901.511013,148.8337 902.370044,149.263216 C902.871145,149.477974 903.085903,149.835903 902.871145,150.337004 C902.656388,151.124449 902.44163,151.911894 902.155286,152.699339 C901.940529,153.415198 901.654185,153.55837 901.009912,153.200441 C899.578194,152.484581 898.07489,152.198238 896.571586,152.34141 C896.14207,152.34141 895.784141,152.412996 895.354626,152.556167 C893.994493,153.128855 893.779736,154.632159 894.92511,155.562775 C895.497797,156.063877 896.14207,156.35022 896.85793,156.636564 C898.07489,157.137665 899.29185,157.638767 900.365639,158.211454 C904.01652,160.215859 904.947137,164.797357 902.44163,167.875551 C901.511013,169.020925 900.294053,169.736784 898.933921,170.1663 C898.289648,170.309471 898.07489,170.667401 898.07489,171.311674 L898.07489,173.172907 C898.07489,173.745595 897.788546,174.031938 897.215859,174.031938 L895.211454,174.031938 C894.638767,174.031938 894.352423,173.674009 894.352423,173.101322 L894.352423,171.741189 C894.352423,170.738987 894.280837,170.667401 893.35022,170.524229 C892.13326,170.309471 890.9163,170.023128 889.770925,169.522026 C888.98348,169.020925 888.840308,168.806167 889.126652,167.875551 L889.126652,167.875551 Z" id="Shape"></path>
        </g>
    </g>
</svg>