<?xml version="1.0" encoding="UTF-8"?>
<svg width="98px" height="63px" viewBox="0 0 98 63" version="1.1" xmlns="http://www.w3.org/2000/svg" xmlns:xlink="http://www.w3.org/1999/xlink">
    <!-- Generator: Sketch 40.3 (33839) - http://www.bohemiancoding.com/sketch -->
    <title>team</title>
    <desc>Created with Sketch.</desc>
    <defs></defs>
    <g id="Desktop" stroke="none" stroke-width="1" fill="none" fill-rule="evenodd">
        <g id="Navbar-(About)" transform="translate(-672.000000, -129.000000)" fill="#EC5623">
            <g id="team" transform="translate(672.000000, 129.000000)">
                <path d="M24.879569,44.8038621 C27.9100862,41.1379138 30.549569,36.7387759 30.549569,31.1665345 C30.549569,24.4211897 26.150431,19.7776552 19.5517241,19.7776552 C12.4642241,19.7776552 8.55387931,25.4476552 8.55387931,31.1665345 C8.55387931,36.2011034 10.5090517,41.7733448 14.2238793,44.5105862 C14.175,45.6348103 13.7839655,46.8567931 11.7310345,47.8832586 L1.80853448,53.2111034 C0,56.7304138 0,62.4492931 0,62.4492931 L19.1606897,62.4492931 C19.1606897,62.4492931 18.4763793,52.5267931 24.879569,44.8038621 L24.879569,44.8038621 Z M12.0731897,31.1665345 C12.0731897,28.8203276 13.0996552,26.4741207 14.957069,24.9588621 C19.4050862,29.5046379 22.5822414,29.358 26.8347414,29.0647241 C26.9325,29.7001552 27.0302586,30.4333448 27.0302586,31.1665345 C27.0302586,37.7163621 24.732931,42.5554138 19.5517241,42.5554138 C15.2992241,42.5554138 12.0731897,37.0320517 12.0731897,31.1665345 L12.0731897,31.1665345 Z" id="Shape"></path>
                <path d="M53.7672414,23.3458448 C55.2336207,23.3458448 56.2112069,22.3682586 56.2112069,20.9018793 C56.2112069,19.4355 55.2336207,18.4579138 53.7672414,18.4579138 C52.3008621,18.4579138 51.3232759,19.4355 51.3232759,20.9018793 C51.3232759,22.3682586 52.3008621,23.3458448 53.7672414,23.3458448 L53.7672414,23.3458448 Z" id="Shape"></path>
                <path d="M23.1199138,34.0015345 C24.1952586,34.0015345 24.879569,33.2683448 24.879569,32.2418793 C24.879569,31.1665345 24.1952586,30.4333448 23.1199138,30.4333448 C22.044569,30.4333448 21.3602586,31.1665345 21.3602586,32.2418793 C21.3602586,33.2683448 22.044569,34.0015345 23.1199138,34.0015345 L23.1199138,34.0015345 Z" id="Shape"></path>
                <path d="M15.9835345,30.4333448 C15.0548276,30.4333448 14.2238793,31.2154138 14.2238793,32.2418793 C14.2238793,33.1705862 15.0548276,34.0015345 15.9835345,34.0015345 C16.9122414,34.0015345 17.792069,33.2683448 17.792069,32.2418793 C17.792069,31.2154138 17.01,30.4333448 15.9835345,30.4333448 L15.9835345,30.4333448 Z" id="Shape"></path>
                <path d="M74.6387069,30.4333448 C73.71,30.4333448 72.8790517,31.2154138 72.8790517,32.2418793 C72.8790517,33.1705862 73.71,34.0015345 74.6387069,34.0015345 C75.5674138,34.0015345 76.4472414,33.2683448 76.4472414,32.2418793 C76.4472414,31.2154138 75.6651724,30.4333448 74.6387069,30.4333448 L74.6387069,30.4333448 Z" id="Shape"></path>
                <path d="M59.6327586,42.4087759 C57.1920517,41.1878793 56.4653793,39.7779828 56.2633448,38.4137069 C61.7953966,34.8531207 64.0318966,27.1443103 64.0318966,19.4355 C64.0318966,18.9597414 64.0145172,18.4926724 63.9830172,18.0332069 C64.6586379,18.1657241 65.3266552,18.306931 65.987069,18.4579138 L65.987069,13.5699828 C65.042069,13.3538276 64.0807759,13.1583103 63.1064483,12.9801724 L63.0543103,12.5923966 C60.9036207,-3.44001724 36.855,-3.48889655 34.7043103,12.5923966 L34.6521724,12.9801724 C33.6778448,13.1583103 32.7165517,13.3538276 31.7715517,13.5699828 L31.7715517,18.4579138 C32.4352241,18.306931 33.1065,18.1646379 33.7842931,18.0321207 C33.7462759,18.4991897 33.7267241,18.9673448 33.7267241,19.4355 C33.7267241,26.3926552 36.4498448,34.0927759 41.5452414,37.9553276 C41.4355345,39.4575517 40.8424655,41.0510172 38.1258621,42.4087759 L24.4396552,49.7406724 C21.9956897,54.6286034 21.9956897,62.4492931 21.9956897,62.4492931 L26.8836207,62.4492931 L41.5474138,62.4492931 L42.4348448,48.2460517 C43.6872414,49.0118276 44.9689655,49.5495 46.2626379,49.8568966 L45.2133621,62.4492931 L52.5452586,62.4492931 L51.4959828,49.8568966 C52.7896552,49.5495 54.0713793,49.0118276 55.3237759,48.2460517 L56.2112069,62.4492931 L70.875,62.4492931 L75.762931,62.4492931 C75.762931,62.4492931 75.762931,54.6286034 73.3189655,49.7406724 L59.6327586,42.4087759 L59.6327586,42.4087759 Z M38.6146552,19.4355 C38.6146552,18.6968793 38.6885172,17.9571724 38.8329828,17.2326724 C45.4208276,16.4201897 52.4127414,16.4234483 58.9973276,17.2413621 C59.094,17.9354483 59.1439655,18.6664655 59.1439655,19.4355 C59.1439655,28.2337759 56.2112069,35.0768793 48.8793103,35.0768793 C43.0137931,35.0768793 38.6146552,27.2561897 38.6146552,19.4355 L38.6146552,19.4355 Z M48.8793103,40.4536034 C49.7732586,40.4536034 50.6226724,40.3840862 51.4275517,40.2504828 C51.6426207,41.5007069 52.1868103,42.5412931 53.0155862,43.4776034 C50.3185345,45.0993103 47.2576034,45.0656379 44.5757586,43.3744138 C45.4664483,42.3979138 46.0714655,41.3562414 46.3147759,40.1820517 C47.1326897,40.3601897 47.9875345,40.4536034 48.8793103,40.4536034 L48.8793103,40.4536034 Z" id="Shape"></path>
                <path d="M46.4353448,20.9018793 C46.4353448,19.4355 45.4577586,18.4579138 43.9913793,18.4579138 C42.525,18.4579138 41.5474138,19.4355 41.5474138,20.9018793 C41.5474138,22.3682586 42.525,23.3458448 43.9913793,23.3458448 C45.4577586,23.3458448 46.4353448,22.3682586 46.4353448,20.9018793 L46.4353448,20.9018793 Z" id="Shape"></path>
                <path d="M83.5347414,32.2418793 C83.5347414,31.1665345 82.850431,30.4333448 81.7750862,30.4333448 C80.6997414,30.4333448 80.015431,31.1665345 80.015431,32.2418793 C80.015431,33.2683448 80.6997414,34.0015345 81.7750862,34.0015345 C82.850431,34.0015345 83.5347414,33.2683448 83.5347414,32.2418793 L83.5347414,32.2418793 Z" id="Shape"></path>
                <path d="M97.7586207,62.4492931 C97.7586207,62.4492931 97.7586207,56.7304138 95.9500862,53.2111034 L86.0275862,47.8832586 C83.9746552,46.8567931 83.5836207,45.6348103 83.5347414,44.5105862 C87.249569,41.7733448 89.2047414,36.2011034 89.2047414,31.1665345 C89.2047414,25.4476552 85.2943966,19.7776552 78.2068966,19.7776552 C71.6081897,19.7776552 67.2090517,24.4211897 67.2090517,31.1665345 C67.2090517,36.7387759 69.8485345,41.1379138 72.8790517,44.8038621 C79.2822414,52.5267931 78.597931,62.4492931 78.597931,62.4492931 L97.7586207,62.4492931 L97.7586207,62.4492931 Z M78.2068966,42.5554138 C73.9543966,42.5554138 70.7283621,37.0320517 70.7283621,31.1665345 C70.7283621,28.8203276 71.7548276,26.4741207 73.6122414,24.9588621 C78.0602586,29.5046379 81.2374138,29.358 85.4899138,29.0647241 C85.5876724,29.7001552 85.685431,30.4333448 85.685431,31.1665345 C85.685431,37.7163621 83.3881034,42.5554138 78.2068966,42.5554138 L78.2068966,42.5554138 Z" id="Shape"></path>
            </g>
        </g>
    </g>
</svg>