<svg width="33px" height="32px" viewBox="132 0 33 32" version="1.1" xmlns="http://www.w3.org/2000/svg" xmlns:xlink="http://www.w3.org/1999/xlink">
    <path d="M164.715402,27.6154284 L164.715402,31.2417442 L148.556347,31.2417442 L132.397291,31.2417442 L132.397291,27.6154284 C132.397291,26.4750718 134.735174,25.0838577 139.411009,23.4417442 C141.56556,22.6663017 143.032467,21.8794675 143.811773,21.0812179 C144.591079,20.2829683 144.980726,19.1996458 144.980726,17.8312179 C144.980726,17.329461 144.728601,16.7706946 144.224345,16.1549021 C143.720088,15.5391095 143.353361,14.7066617 143.124153,13.6575337 C143.078312,13.3838481 142.97517,13.178587 142.814725,13.0417442 C142.654279,12.9049014 142.493837,12.8136742 142.333391,12.76806 C142.172946,12.7224457 142.012503,12.528588 141.852058,12.186481 C141.691612,11.8443741 141.58847,11.3540281 141.542629,10.7154284 C141.542629,10.3505143 141.59993,10.054026 141.714534,9.82595472 C141.829138,9.5978834 141.932279,9.46104267 142.023962,9.4154284 L142.161486,9.2785863 C141.97812,8.13822972 141.840598,7.13473098 141.748915,6.26805998 C141.657232,5.03647488 142.1271,3.75929467 143.158534,2.43648103 C144.189969,1.1136674 145.989221,0.452270508 148.556347,0.452270508 C151.123472,0.452270508 152.934185,1.1136674 153.98854,2.43648103 C155.042895,3.75929467 155.501303,5.03647488 155.363778,6.26805998 L154.951207,9.2785863 C155.36378,9.46104335 155.570064,9.93998593 155.570064,10.7154284 C155.524223,11.3540281 155.421081,11.8443741 155.260636,12.186481 C155.10019,12.528588 154.939747,12.7224457 154.779302,12.76806 C154.618857,12.8136742 154.458414,12.9049014 154.297968,13.0417442 C154.137523,13.178587 154.034381,13.3838481 153.98854,13.6575337 C153.805174,14.752276 153.449907,15.5961272 152.92273,16.1891126 C152.395552,16.782098 152.131967,17.329461 152.131967,17.8312179 C152.131967,19.1996458 152.533075,20.2829683 153.335301,21.0812179 C154.137528,21.8794675 155.592974,22.6663017 157.701684,23.4417442 C162.377519,25.0838577 164.715402,26.4750718 164.715402,27.6154284 Z" id="user-ico" stroke="none" fill="#A0A0A0" fill-rule="evenodd"></path>
</svg>